{
  "accessors": [
    {
      "bufferView": 2,
      "componentType": 5126,
      "count": 65532,
      "max": [
        111.76178741455078,
        -10.863076210021973,
        175.758544921875
      ],
      "min": [
        -177.75254821777344,
        -110.09622192382813,
        -75.08074951171875
      ],
      "type": "VEC3"
    },
    {
      "bufferView": 2,
      "byteOffset": 786384,
      "componentType": 5126,
      "count": 65532,
      "max": [
        0.9997051358222961,
        0.997283399105072,
        0.9997224807739258
      ],
      "min": [
        -0.9999970197677612,
        -0.9999996423721313,
        -0.9999690055847168
      ],
      "type": "VEC3"
    },
    {
      "bufferView": 1,
      "componentType": 5126,
      "count": 65532,
      "max": [
        0.9990751147270203,
        0.9989590048789978
      ],
      "min": [
        0.0010456665186211467,
        0.004119217395782471
      ],
      "type": "VEC2"
    },
    {
      "bufferView": 0,
      "componentType": 5125,
      "count": 306663,
      "type": "SCALAR"
    },
    {
      "bufferView": 2,
      "byteOffset": 1572768,
      "componentType": 5126,
      "count": 65532,
      "max": [
        46.80049514770508,
        -26.86219596862793,
        173.1084442138672
      ],
      "min": [
        -18.122098922729492,
        -81.17422485351563,
        -74.74285888671875
      ],
      "type": "VEC3"
    },
    {
      "bufferView": 2,
      "byteOffset": 2359152,
      "componentType": 5126,
      "count": 65532,
      "max": [
        0.9999853372573853,
        0.9996271729469299,
        0.9998605847358704
      ],
      "min": [
        -0.9999767541885376,
        -0.9999998807907104,
        -0.9998902082443237
      ],
      "type": "VEC3"
    },
    {
      "bufferView": 1,
      "byteOffset": 524256,
      "componentType": 5126,
      "count": 65532,
      "max": [
        0.9990789890289307,
        0.9989360570907593
      ],
      "min": [
        0.001039832946844399,
        0.006623625755310059
      ],
      "type": "VEC2"
    },
    {
      "bufferView": 0,
      "byteOffset": 1226652,
      "componentType": 5125,
      "count": 280653,
      "type": "SCALAR"
    },
    {
      "bufferView": 2,
      "byteOffset": 3145536,
      "componentType": 5126,
      "count": 65532,
      "max": [
        23.137807846069336,
        -26.875680923461914,
        173.63465881347656
      ],
      "min": [
        -10.944003105163574,
        -78.84120178222656,
        -74.0066146850586
      ],
      "type": "VEC3"
    },
    {
      "bufferView": 2,
      "byteOffset": 3931920,
      "componentType": 5126,
      "count": 65532,
      "max": [
        0.9999175667762756,
        0.9966703057289124,
        0.9998633861541748
      ],
      "min": [
        -0.9999515414237976,
        -1.0,
        -0.9999943375587463
      ],
      "type": "VEC3"
    },
    {
      "bufferView": 1,
      "byteOffset": 1048512,
      "componentType": 5126,
      "count": 65532,
      "max": [
        0.9987378716468811,
        0.9989492297172546
      ],
      "min": [
        0.0010467582615092397,
        0.015590249560773373
      ],
      "type": "VEC2"
    },
    {
      "bufferView": 0,
      "byteOffset": 2349264,
      "componentType": 5125,
      "count": 308724,
      "type": "SCALAR"
    },
    {
      "bufferView": 2,
      "byteOffset": 4718304,
      "componentType": 5126,
      "count": 65532,
      "max": [
        22.57695770263672,
        -27.368398666381836,
        171.77781677246094
      ],
      "min": [
        -63.02543258666992,
        -85.70988464355469,
        -74.01033020019531
      ],
      "type": "VEC3"
    },
    {
      "bufferView": 2,
      "byteOffset": 5504688,
      "componentType": 5126,
      "count": 65532,
      "max": [
        0.999845027923584,
        0.9978992938995361,
        0.9999985098838806
      ],
      "min": [
        -0.9999984502792358,
        -0.9999998807907104,
        -0.9999992847442627
      ],
      "type": "VEC3"
    },
    {
      "bufferView": 1,
      "byteOffset": 1572768,
      "componentType": 5126,
      "count": 65532,
      "max": [
        0.9986645579338074,
        0.9989386200904846
      ],
      "min": [
        0.0010600232053548098,
        0.0032438039779663086
      ],
      "type": "VEC2"
    },
    {
      "bufferView": 0,
      "byteOffset": 3584160,
      "componentType": 5125,
      "count": 298239,
      "type": "SCALAR"
    },
    {
      "bufferView": 2,
      "byteOffset": 6291072,
      "componentType": 5126,
      "count": 65532,
      "max": [
        -4.959742546081543,
        -27.781835556030273,
        167.20419311523438
      ],
      "min": [
        -96.8397216796875,
        -85.61068725585938,
        -72.81438446044922
      ],
      "type": "VEC3"
    },
    {
      "bufferView": 2,
      "byteOffset": 7077456,
      "componentType": 5126,
      "count": 65532,
      "max": [
        0.999845027923584,
        0.9994636178016663,
        0.9999817609786987
      ],
      "min": [
        -0.9998523592948914,
        -0.9999998211860657,
        -0.9999599456787109
      ],
      "type": "VEC3"
    },
    {
      "bufferView": 1,
      "byteOffset": 2097024,
      "componentType": 5126,
      "count": 65532,
      "max": [
        0.9990450143814087,
        0.998956561088562
      ],
      "min": [
        0.001052569830790162,
        0.0019503235816955566
      ],
      "type": "VEC2"
    },
    {
      "bufferView": 0,
      "byteOffset": 4777116,
      "componentType": 5125,
      "count": 281496,
      "type": "SCALAR"
    },
    {
      "bufferView": 2,
      "byteOffset": 7863840,
      "componentType": 5126,
      "count": 65532,
      "max": [
        -32.49857711791992,
        -29.45850372314453,
        175.44105529785156
      ],
      "min": [
        -176.82064819335938,
        -110.01202392578125,
        -73.59144592285156
      ],
      "type": "VEC3"
    },
    {
      "bufferView": 2,
      "byteOffset": 8650224,
      "componentType": 5126,
      "count": 65532,
      "max": [
        0.9999481439590454,
        0.9988354444503784,
        0.9997907280921936
      ],
      "min": [
        -0.9997007846832275,
        -0.9999964237213135,
        -0.9998916387557983
      ],
      "type": "VEC3"
    },
    {
      "bufferView": 1,
      "byteOffset": 2621280,
      "componentType": 5126,
      "count": 65532,
      "max": [
        0.9990787506103516,
        0.9989578723907471
      ],
      "min": [
        0.0010411138646304607,
        0.009801268577575684
      ],
      "type": "VEC2"
    },
    {
      "bufferView": 0,
      "byteOffset": 5903100,
      "componentType": 5125,
      "count": 296259,
      "type": "SCALAR"
    },
    {
      "bufferView": 2,
      "byteOffset": 9436608,
      "componentType": 5126,
      "count": 65532,
      "max": [
        6.102460861206055,
        -27.368398666381836,
        174.20013427734375
      ],
      "min": [
        -177.19911193847656,
        -107.07365417480469,
        -74.28875732421875
      ],
      "type": "VEC3"
    },
    {
      "bufferView": 2,
      "byteOffset": 10222992,
      "componentType": 5126,
      "count": 65532,
      "max": [
        0.9999918937683105,
        0.9985632300376892,
        0.9999754428863525
      ],
      "min": [
        -0.9999984502792358,
        -0.9999998807907104,
        -0.9999833703041077
      ],
      "type": "VEC3"
    },
    {
      "bufferView": 1,
      "byteOffset": 3145536,
      "componentType": 5126,
      "count": 65532,
      "max": [
        0.9990677833557129,
        0.9989603757858276
      ],
      "min": [
        0.0010524006793275476,
        0.0016154646873474121
      ],
      "type": "VEC2"
    },
    {
      "bufferView": 0,
      "byteOffset": 7088136,
      "componentType": 5125,
      "count": 233370,
      "type": "SCALAR"
    },
    {
      "bufferView": 2,
      "byteOffset": 11009376,
      "componentType": 5126,
      "count": 40009,
      "max": [
        23.235469818115234,
        -25.568206787109375,
        171.4744873046875
      ],
      "min": [
        -5.310911655426025,
        -90.46890258789063,
        -74.61860656738281
      ],
      "type": "VEC3"
    },
    {
      "bufferView": 2,
      "byteOffset": 11489484,
      "componentType": 5126,
      "count": 40009,
      "max": [
        0.9999975562095642,
        0.9998126029968262,
        0.9999985098838806
      ],
      "min": [
        -0.9998096227645874,
        -0.9999998211860657,
        -0.9999973773956299
      ],
      "type": "VEC3"
    },
    {
      "bufferView": 1,
      "byteOffset": 3669792,
      "componentType": 5126,
      "count": 40009,
      "max": [
        0.9989731907844543,
        0.9989602565765381
      ],
      "min": [
        0.0010415797587484121,
        0.0037615299224853516
      ],
      "type": "VEC2"
    },
    {
      "bufferView": 0,
      "byteOffset": 8021616,
      "componentType": 5125,
      "count": 125985,
      "type": "SCALAR"
    },
    {
      "bufferView": 2,
      "byteOffset": 11969592,
      "componentType": 5126,
      "count": 65533,
      "max": [
        111.61332702636719,
        -10.3124418258667,
        174.51290893554688
      ],
      "min": [
        -177.55686950683594,
        -99.99363708496094,
        -75.35480499267578
      ],
      "type": "VEC3"
    },
    {
      "bufferView": 2,
      "byteOffset": 12755988,
      "componentType": 5126,
      "count": 65533,
      "max": [
        0.9999535083770752,
        0.9999745488166809,
        0.9998611807823181
      ],
      "min": [
        -0.9999988675117493,
        -0.9999904632568359,
        -0.9999337196350098
      ],
      "type": "VEC3"
    },
    {
      "bufferView": 1,
      "byteOffset": 3989864,
      "componentType": 5126,
      "count": 65533,
      "max": [
        0.998966634273529,
        0.9979053735733032
      ],
      "min": [
        0.0010438872268423438,
        0.0023067593574523926
      ],
      "type": "VEC2"
    },
    {
      "bufferView": 0,
      "byteOffset": 8525556,
      "componentType": 5125,
      "count": 288888,
      "type": "SCALAR"
    },
    {
      "bufferView": 2,
      "byteOffset": 13542384,
      "componentType": 5126,
      "count": 65532,
      "max": [
        46.70977020263672,
        -26.937946319580078,
        173.1084442138672
      ],
      "min": [
        -16.64081382751465,
        -85.70792388916016,
        -71.64057159423828
      ],
      "type": "VEC3"
    },
    {
      "bufferView": 2,
      "byteOffset": 14328768,
      "componentType": 5126,
      "count": 65532,
      "max": [
        0.999979555606842,
        0.9998858571052551,
        0.9999115467071533
      ],
      "min": [
        -0.999997615814209,
        -0.9999934434890747,
        -0.9999920129776001
      ],
      "type": "VEC3"
    },
    {
      "bufferView": 1,
      "byteOffset": 4514128,
      "componentType": 5126,
      "count": 65532,
      "max": [
        0.9990620017051697,
        0.9979228377342224
      ],
      "min": [
        0.001048360369168222,
        0.001862645149230957
      ],
      "type": "VEC2"
    },
    {
      "bufferView": 0,
      "byteOffset": 9681108,
      "componentType": 5125,
      "count": 269100,
      "type": "SCALAR"
    },
    {
      "bufferView": 2,
      "byteOffset": 15115152,
      "componentType": 5126,
      "count": 65532,
      "max": [
        6.349945545196533,
        -27.443498611450195,
        163.26385498046875
      ],
      "min": [
        -96.27132415771484,
        -85.68791198730469,
        -74.3759765625
      ],
      "type": "VEC3"
    },
    {
      "bufferView": 2,
      "byteOffset": 15901536,
      "componentType": 5126,
      "count": 65532,
      "max": [
        0.9999967217445374,
        0.9989469051361084,
        0.9999877214431763
      ],
      "min": [
        -0.9999939799308777,
        -0.9999960064888,
        -0.9999843239784241
      ],
      "type": "VEC3"
    },
    {
      "bufferView": 1,
      "byteOffset": 5038384,
      "componentType": 5126,
      "count": 65532,
      "max": [
        0.9990635514259338,
        0.9979237914085388
      ],
      "min": [
        0.001045860000886023,
        0.00207674503326416
      ],
      "type": "VEC2"
    },
    {
      "bufferView": 0,
      "byteOffset": 10757508,
      "componentType": 5125,
      "count": 284037,
      "type": "SCALAR"
    },
    {
      "bufferView": 2,
      "byteOffset": 16687920,
      "componentType": 5126,
      "count": 65532,
      "max": [
        8.917279243469238,
        -27.450441360473633,
        173.80404663085938
      ],
      "min": [
        -177.51986694335938,
        -106.49214172363281,
        -73.54347229003906
      ],
      "type": "VEC3"
    },
    {
      "bufferView": 2,
      "byteOffset": 17474304,
      "componentType": 5126,
      "count": 65532,
      "max": [
        0.9999976754188538,
        0.9997779726982117,
        0.9999891519546509
      ],
      "min": [
        -0.9999933838844299,
        -0.9999894499778748,
        -0.9999992847442627
      ],
      "type": "VEC3"
    },
    {
      "bufferView": 1,
      "byteOffset": 5562640,
      "componentType": 5126,
      "count": 65532,
      "max": [
        0.999039888381958,
        0.9979237914085388
      ],
      "min": [
        0.00103843305259943,
        0.002012014389038086
      ],
      "type": "VEC2"
    },
    {
      "bufferView": 0,
      "byteOffset": 11893656,
      "componentType": 5125,
      "count": 257121,
      "type": "SCALAR"
    },
    {
      "bufferView": 2,
      "byteOffset": 18260688,
      "componentType": 5126,
      "count": 14543,
      "max": [
        23.122283935546875,
        -27.24993133544922,
        172.70225524902344
      ],
      "min": [
        -3.5096595287323,
        -90.5105972290039,
        -69.46269226074219
      ],
      "type": "VEC3"
    },
    {
      "bufferView": 2,
      "byteOffset": 18435204,
      "componentType": 5126,
      "count": 14543,
      "max": [
        0.9999726414680481,
        0.9965426921844482,
        0.9999462962150574
      ],
      "min": [
        -0.9992408752441406,
        -0.9999905228614807,
        -0.9999992847442627
      ],
      "type": "VEC3"
    },
    {
      "bufferView": 1,
      "byteOffset": 6086896,
      "componentType": 5126,
      "count": 14543,
      "max": [
        0.9989689588546753,
        0.9978718757629395
      ],
      "min": [
        0.0010522702941671014,
        0.002137601375579834
      ],
      "type": "VEC2"
    },
    {
      "bufferView": 0,
      "byteOffset": 12922140,
      "componentType": 5125,
      "count": 40095,
      "type": "SCALAR"
    }
  ],
  "asset": {
    "extras": {
      "author": "aaahhhfff (https://sketchfab.com/aaahhhfff)",
      "license": "CC-BY-4.0 (http://creativecommons.org/licenses/by/4.0/)",
      "source": "https://sketchfab.com/3d-models/c7a09c51f8e640c487d341af9fa52398",
      "title": "神女湖"
    },
    "generator": "Sketchfab-11.87.0",
    "version": "2.0"
  },
  "bufferViews": [
    {
      "buffer": 0,
      "byteLength": 13082520,
      "name": "floatBufferViews",
      "target": 34963
    },
    {
      "buffer": 0,
      "byteLength": 6203240,
      "byteOffset": 13082520,
      "byteStride": 8,
      "name": "floatBufferViews",
      "target": 34962
    },
    {
      "buffer": 0,
      "byteLength": 18609720,
      "byteOffset": 19285760,
      "byteStride": 12,
      "name": "floatBufferViews",
      "target": 34962
    }
  ],
  "buffers": [
    {
      "byteLength": 37895480,
      "uri": "scene.bin"
    }
  ],
  "images": [
    {
      "uri": "textures/Model_0_baseColor.jpeg"
    },
    {
      "uri": "textures/Model_1_baseColor.jpeg"
    }
  ],
  "materials": [
    {
      "doubleSided": true,
      "name": "Model_0",
      "pbrMetallicRoughness": {
        "baseColorTexture": {
          "index": 0
        },
        "metallicFactor": 0.0
      }
    },
    {
      "doubleSided": true,
      "name": "Model_1",
      "pbrMetallicRoughness": {
        "baseColorTexture": {
          "index": 1
        },
        "metallicFactor": 0.0
      }
    }
  ],
  "meshes": [
    {
      "name": "Object_0",
      "primitives": [
        {
          "attributes": {
            "NORMAL": 1,
            "POSITION": 0,
            "TEXCOORD_0": 2
          },
          "indices": 3,
          "material": 0,
          "mode": 4
        }
      ]
    },
    {
      "name": "Object_1",
      "primitives": [
        {
          "attributes": {
            "NORMAL": 5,
            "POSITION": 4,
            "TEXCOORD_0": 6
          },
          "indices": 7,
          "material": 0,
          "mode": 4
        }
      ]
    },
    {
      "name": "Object_2",
      "primitives": [
        {
          "attributes": {
            "NORMAL": 9,
            "POSITION": 8,
            "TEXCOORD_0": 10
          },
          "indices": 11,
          "material": 0,
          "mode": 4
        }
      ]
    },
    {
      "name": "Object_3",
      "primitives": [
        {
          "attributes": {
            "NORMAL": 13,
            "POSITION": 12,
            "TEXCOORD_0": 14
          },
          "indices": 15,
          "material": 0,
          "mode": 4
        }
      ]
    },
    {
      "name": "Object_4",
      "primitives": [
        {
          "attributes": {
            "NORMAL": 17,
            "POSITION": 16,
            "TEXCOORD_0": 18
          },
          "indices": 19,
          "material": 0,
          "mode": 4
        }
      ]
    },
    {
      "name": "Object_5",
      "primitives": [
        {
          "attributes": {
            "NORMAL": 21,
            "POSITION": 20,
            "TEXCOORD_0": 22
          },
          "indices": 23,
          "material": 0,
          "mode": 4
        }
      ]
    },
    {
      "name": "Object_6",
      "primitives": [
        {
          "attributes": {
            "NORMAL": 25,
            "POSITION": 24,
            "TEXCOORD_0": 26
          },
          "indices": 27,
          "material": 0,
          "mode": 4
        }
      ]
    },
    {
      "name": "Object_7",
      "primitives": [
        {
          "attributes": {
            "NORMAL": 29,
            "POSITION": 28,
            "TEXCOORD_0": 30
          },
          "indices": 31,
          "material": 0,
          "mode": 4
        }
      ]
    },
    {
      "name": "Object_8",
      "primitives": [
        {
          "attributes": {
            "NORMAL": 33,
            "POSITION": 32,
            "TEXCOORD_0": 34
          },
          "indices": 35,
          "material": 1,
          "mode": 4
        }
      ]
    },
    {
      "name": "Object_9",
      "primitives": [
        {
          "attributes": {
            "NORMAL": 37,
            "POSITION": 36,
            "TEXCOORD_0": 38
          },
          "indices": 39,
          "material": 1,
          "mode": 4
        }
      ]
    },
    {
      "name": "Object_10",
      "primitives": [
        {
          "attributes": {
            "NORMAL": 41,
            "POSITION": 40,
            "TEXCOORD_0": 42
          },
          "indices": 43,
          "material": 1,
          "mode": 4
        }
      ]
    },
    {
      "name": "Object_11",
      "primitives": [
        {
          "attributes": {
            "NORMAL": 45,
            "POSITION": 44,
            "TEXCOORD_0": 46
          },
          "indices": 47,
          "material": 1,
          "mode": 4
        }
      ]
    },
    {
      "name": "Object_12",
      "primitives": [
        {
          "attributes": {
            "NORMAL": 49,
            "POSITION": 48,
            "TEXCOORD_0": 50
          },
          "indices": 51,
          "material": 1,
          "mode": 4
        }
      ]
    }
  ],
  "nodes": [
    {
      "children": [
        1
      ],
      "matrix": [
        1.0,
        0.0,
        0.0,
        0.0,
        0.0,
        2.220446049250313e-16,
        -1.0,
        0.0,
        0.0,
        1.0,
        2.220446049250313e-16,
        0.0,
        0.0,
        0.0,
        0.0,
        1.0
      ],
      "name": "Sketchfab_model"
    },
    {
      "children": [
        2,
        3,
        4,
        5,
        6,
        7,
        8,
        9,
        10,
        11,
        12,
        13,
        14
      ],
      "name": "Model.obj.cleaner.materialmerger.gles"
    },
    {
      "mesh": 0,
      "name": "Object_2"
    },
    {
      "mesh": 1,
      "name": "Object_3"
    },
    {
      "mesh": 2,
      "name": "Object_4"
    },
    {
      "mesh": 3,
      "name": "Object_5"
    },
    {
      "mesh": 4,
      "name": "Object_6"
    },
    {
      "mesh": 5,
      "name": "Object_7"
    },
    {
      "mesh": 6,
      "name": "Object_8"
    },
    {
      "mesh": 7,
      "name": "Object_9"
    },
    {
      "mesh": 8,
      "name": "Object_10"
    },
    {
      "mesh": 9,
      "name": "Object_11"
    },
    {
      "mesh": 10,
      "name": "Object_12"
    },
    {
      "mesh": 11,
      "name": "Object_13"
    },
    {
      "mesh": 12,
      "name": "Object_14"
    }
  ],
  "samplers": [
    {
      "magFilter": 9729,
      "minFilter": 9987,
      "wrapS": 10497,
      "wrapT": 10497
    }
  ],
  "scene": 0,
  "scenes": [
    {
      "name": "Sketchfab_Scene",
      "nodes": [
        0
      ]
    }
  ],
  "textures": [
    {
      "sampler": 0,
      "source": 0
    },
    {
      "sampler": 0,
      "source": 1
    }
  ]
}
